<svg xmlns="http://www.w3.org/2000/svg" width="1024" height="140" viewBox="-3.568 -3.568 923.365 126.062"><defs><linearGradient id="b" spreadMethod="pad" gradientTransform="translate(-.005 -.002) scale(1.56978)" gradientUnits="userSpaceOnUse" y2="44.672" x2="54.391" y1="57.472" x1="41.591"><stop offset="0" style="stop-opacity:1;stop-color:#0052cc"/><stop offset="1" style="stop-opacity:1;stop-color:#2684ff"/></linearGradient><linearGradient id="a" spreadMethod="pad" gradientTransform="translate(-.005 -.002) scale(1.56978)" gradientUnits="userSpaceOnUse" y2="30.988" x2="19" y1="18.166" x1="31.825"><stop offset="0" style="stop-opacity:1;stop-color:#0052cc"/><stop offset="1" style="stop-opacity:1;stop-color:#2684ff"/></linearGradient></defs><path d="M552.765 6.7c-14.79 0-21.979 8.715-21.979 21.552v7.54h-11.191v10.986h11.236v58.082h11.6V46.778h17.818V35.79H542.43l-.108-7.193c0-6.215 3.673-10.502 10.986-10.502 2.505-.01 5.001.226 7.457.693V7.8a28.592 28.592 0 0 0-8.001-1.1zM205.788 9.261a7.733 7.733 0 0 0-5.197 2.268 7.756 7.756 0 0 0-2.256 6.033 8.286 8.286 0 0 0 4.144 7.183 8.272 8.272 0 0 0 8.291 0 8.281 8.281 0 0 0 4.143-7.183 7.744 7.744 0 0 0-2.252-6.033 7.74 7.74 0 0 0-6.035-2.252c-.281-.02-.56-.026-.838-.016zm198.129 3.469C382.769 12.73 372 23.185 372 37.31c0 14.916 9.152 21.961 29.562 26.937 17.265 4.145 22.24 8.413 22.24 16.436 0 8.022-5.166 13.408-18.837 13.408-12.008 0-24.99-3.174-33.418-7.597v12.7c7.046 3.594 15.194 7.046 32.744 7.046 22.524 0 31.915-10.645 32.008-26.387 0-16.358-10.782-22.511-29.98-27.35-16.012-3.998-21.823-7.737-21.823-15.193 0-8.286 7.05-12.432 18.93-12.432a55.706 55.706 0 0 1 28.257 6.908V19.352c-6.216-3.481-14.642-6.621-27.767-6.621zm-232.375 1.394.03 63.936c0 9.059-3.629 15.338-14.126 15.338a34.75 34.75 0 0 1-12.842-2.354v12.084a44.243 44.243 0 0 0 14.912 2.36c17.144 0 24.46-11.54 24.46-28.258V14.125h-12.434zm406.34 7.018V35.85h-11.198v10.992h11.24v36.45c0 12.856 7.194 21.552 21.98 21.552 2.71.015 5.403-.357 8.005-1.1V92.287a37.66 37.66 0 0 1-7.455.972c-7.319 0-10.913-4.142-10.977-10.22v-36.26h18.37V35.79h-18.37V21.143h-11.595zm308.52 13.219c-21.002 0-32.602 14.91-32.602 35.775 0 21.191 11.318 36.104 37.158 36.104 7.045 0 15.76-1.07 21.424-4.125V91.123a61.175 61.175 0 0 1-21 3.737c-16.299 0-23.897-7.598-25.557-19.342h50.404v-5.381c0-20.991-8.553-35.775-29.828-35.775zm-586.266.049c-19.34 0-29.008 16.434-29.008 35.912 0 20.312 9.262 35.918 27.627 35.918 10.63 0 18.917-4.691 23.345-13.813l.014 12.432H334V35.792h-11.885V47.94c-4.16-8.98-11.9-13.53-21.978-13.53zm179.445 0c-20.723 0-32.873 15.054-32.873 35.771 0 20.723 12.292 36.108 32.873 36.108 20.581 0 32.601-15.385 32.601-36.108 0-20.717-11.884-35.771-32.601-35.771zm281.664 0c-19.341 0-29.008 16.434-29.008 35.912 0 20.312 9.262 35.918 27.627 35.918 10.629 0 18.915-4.691 23.344-13.813l.014 12.432h11.887V35.792h-11.887V47.94c-4.16-8.98-11.9-13.53-21.977-13.53zm-497.26.326c-11.882-.016-18.254 5.562-22.008 13.203V35.792h-11.601v69.115h11.601V64.092c0-14.629 9.262-19.243 24.457-17.676V34.816a40.528 40.528 0 0 0-2.449-.078zm582.67 0c-11.882-.016-18.252 5.562-22.006 13.203V35.792h-11.603v69.115h11.603V64.092c0-14.629 9.262-19.243 24.457-17.676V34.816a40.593 40.593 0 0 0-2.45-.078zm-235.42 1.055 25.414 69.068h15.196l12.04-33.418 6.282-21.275 6.277 21.275 11.887 33.418h15.193l25.416-69.068h-13.125l-19.908 58.564-20.17-58.564h-11.334l-20.156 58.564-19.887-58.564h-13.125zm-410.683.015v69.067h11.879V35.807h-11.88zm685.267 9.448c11.87 0 17.677 7.328 18.37 20.17h-38.505v-.076c1.24-11.978 7.596-20.157 20.135-20.094zm-582.558.142c10.142 0 18.84 6.768 18.84 22.104v5.586c0 15.33-9.523 22.099-20.157 22.105-12.31 0-18.932-8.292-18.996-24.933 0-16.025 6.905-24.862 20.313-24.862zm461.109 0c10.141 0 18.838 6.768 18.838 22.104v5.586c0 15.328-9.52 22.097-20.156 22.105-12.31 0-18.979-8.291-18.979-24.869 0-16.025 6.952-24.8 20.297-24.926zm-284.789.125c14.644 0 21 11.54 21 24.66 0 13.126-6.23 25.01-21 25.01s-21.272-11.884-21.272-25.01h.06c0-13.12 6.564-24.66 21.212-24.66z" style="fill:#253858;fill-opacity:1;fill-rule:nonzero;stroke:none"/><path style="fill:#2684ff;fill-opacity:1;fill-rule:nonzero;stroke:none" d="M113.647 56.134 62.47 4.956 57.51 0 1.376 56.134a4.71 4.71 0 0 0 0 6.655l35.196 35.195 20.938 20.942 56.137-56.137a4.708 4.708 0 0 0 0-6.655zM57.51 77.04 39.931 59.464 57.51 41.88l17.582 17.584L57.51 77.04Z"/><path d="M57.51 41.88C46.001 30.366 45.942 11.719 57.387.138l-38.476 38.46 20.943 20.943L57.51 41.88Z" style="fill:url(#a);fill-opacity:1;fill-rule:nonzero;stroke:none"/><path d="M75.141 59.414 57.51 77.04a29.607 29.607 0 0 1 8.681 20.943 29.616 29.616 0 0 1-8.681 20.942l38.569-38.57L75.14 59.414z" style="fill:url(#b);fill-opacity:1;fill-rule:nonzero;stroke:none"/></svg>