<svg xmlns="http://www.w3.org/2000/svg" width="595.275" height="311.111"><path d="M0 0h595.275v311.111H0z" style="fill:#1d2d44;fill-opacity:1"/><circle cx="97.312" cy="225.171" r="21.999" style="fill:none;stroke:#fff;stroke-width:4;stroke-opacity:1"/><circle cx="364.825" cy="225.171" r="22.001" style="fill:none;stroke:#fff;stroke-width:4;stroke-opacity:1"/><path d="M135.313 202.966v30.074c0 7.801 6.324 14.123 14.123 14.123 7.803 0 14.125-6.322 14.125-14.123v-30.074M163.561 202.966v30.074c0 7.801 6.324 14.123 14.125 14.123s14.125-6.322 14.125-14.123v-30.074M319.578 162.962v70.078c0 7.801 6.322 14.123 14.123 14.123M208.317 247.169v-22.201c0-12.15 9.85-22 22-22 12.152 0 22.002 9.85 22.002 22v22.201M401.322 202.966v22.205c0 12.148 9.85 21.998 22 21.998s22.002-9.85 22.002-21.998v-22.205M303.146 176.839c-19.421 0-35.167 15.744-35.167 35.166 0 19.422 15.746 35.164 35.167 35.164M504.596 162.962v40.172-.979M490.236 247.157h-7.848c-12.15 0-22-9.85-22-21.998 0-12.15 9.85-22 22-22l22.207-.025s.137 22.342 0 29.895c-.138 7.552-7.968 14.128-14.359 14.128z" style="fill:none;stroke:#fff;stroke-width:4;stroke-opacity:1"/><circle cx="288.494" cy="78.911" r="20.332" style="fill:#fff;fill-opacity:1;stroke:#1d2d44;stroke-width:4;stroke-opacity:1"/><circle cx="251.211" cy="149.577" r="37.242" style="fill:#fff;fill-opacity:1;stroke:#1d2d44;stroke-width:4;stroke-opacity:1"/><circle cx="293.225" cy="124.796" r="40.261" style="fill:#fff;fill-opacity:1;stroke:#1d2d44;stroke-width:4;stroke-opacity:1"/><circle cx="375.334" cy="108.472" r="37.242" style="fill:#fff;fill-opacity:1;stroke:#1d2d44;stroke-width:4;stroke-opacity:1"/><circle cx="334.493" cy="79.504" r="37.241" style="fill:#fff;fill-opacity:1;stroke:#1d2d44;stroke-width:4;stroke-opacity:1"/><circle cx="458.427" cy="163.958" r="21.3" style="fill:#fff;fill-opacity:1;stroke:#1d2d44;stroke-width:4;stroke-opacity:1"/><circle cx="413.163" cy="147.563" r="40.261" style="fill:#fff;fill-opacity:1;stroke:#1d2d44;stroke-width:4;stroke-opacity:1"/><circle cx="290.762" cy="166.011" r="21.299" style="fill:#fff;fill-opacity:1;stroke:#1d2d44;stroke-width:4;stroke-opacity:1"/><path d="M398.107 135.669c0 28.348-22.984 51.328-51.334 51.328s-51.333-22.98-51.333-51.328c0-28.351 22.984-51.333 51.333-51.333 28.349 0 51.334 22.982 51.334 51.333z" style="fill:#fff;fill-opacity:1;stroke:#1d2d44;stroke-width:4;stroke-opacity:1"/></svg>